<mxfile host="Electron" agent="Mozilla/5.0 (Windows NT 10.0; Win64; x64) AppleWebKit/537.36 (KHTML, like Gecko) draw.io/26.0.4 Chrome/128.0.6613.186 Electron/32.2.5 Safari/537.36" version="26.0.4">
  <diagram name="PÃ¡gina-1" id="L6_Tc0wmKuz3p0CFCVba">
    <mxGraphModel dx="1195" dy="1866" grid="1" gridSize="10" guides="1" tooltips="1" connect="1" arrows="1" fold="1" page="1" pageScale="1" pageWidth="827" pageHeight="1169" math="0" shadow="0">
      <root>
        <mxCell id="0" />
        <mxCell id="1" parent="0" />
        <mxCell id="jzcio_IL72jMOlBDSi92-9" value="" style="shape=partialRectangle;whiteSpace=wrap;html=1;right=0;top=0;bottom=0;fillColor=none;routingCenterX=-0.5;strokeWidth=3;" vertex="1" parent="1">
          <mxGeometry x="345" width="10" height="60" as="geometry" />
        </mxCell>
        <mxCell id="jzcio_IL72jMOlBDSi92-8" value="" style="shape=partialRectangle;whiteSpace=wrap;html=1;bottom=0;right=0;fillColor=none;strokeColor=default;strokeWidth=3;rotation=90;" vertex="1" parent="1">
          <mxGeometry x="430" y="-60" width="60" height="160" as="geometry" />
        </mxCell>
        <mxCell id="jzcio_IL72jMOlBDSi92-12" value="" style="shape=partialRectangle;whiteSpace=wrap;html=1;right=0;top=0;bottom=0;fillColor=none;routingCenterX=-0.5;strokeWidth=3;" vertex="1" parent="1">
          <mxGeometry x="540" y="40" width="10" height="120" as="geometry" />
        </mxCell>
        <mxCell id="jzcio_IL72jMOlBDSi92-7" value="" style="shape=partialRectangle;whiteSpace=wrap;html=1;bottom=0;right=0;fillColor=none;strokeColor=default;strokeWidth=3;" vertex="1" parent="1">
          <mxGeometry x="110" y="-10" width="210" height="60" as="geometry" />
        </mxCell>
        <mxCell id="jzcio_IL72jMOlBDSi92-1" value="iPhone" style="swimlane;fontStyle=1;align=center;verticalAlign=top;childLayout=stackLayout;horizontal=1;startSize=26;horizontalStack=0;resizeParent=1;resizeParentMax=0;resizeLast=0;collapsible=1;marginBottom=0;whiteSpace=wrap;html=1;" vertex="1" collapsed="1" parent="1">
          <mxGeometry x="300" y="-20" width="80" height="30" as="geometry">
            <mxRectangle x="330" y="-20" width="160" height="86" as="alternateBounds" />
          </mxGeometry>
        </mxCell>
        <mxCell id="jzcio_IL72jMOlBDSi92-2" value="+ field: type" style="text;strokeColor=none;fillColor=none;align=left;verticalAlign=top;spacingLeft=4;spacingRight=4;overflow=hidden;rotatable=0;points=[[0,0.5],[1,0.5]];portConstraint=eastwest;whiteSpace=wrap;html=1;" vertex="1" parent="jzcio_IL72jMOlBDSi92-1">
          <mxGeometry y="26" width="160" height="26" as="geometry" />
        </mxCell>
        <mxCell id="jzcio_IL72jMOlBDSi92-3" value="" style="line;strokeWidth=1;fillColor=none;align=left;verticalAlign=middle;spacingTop=-1;spacingLeft=3;spacingRight=3;rotatable=0;labelPosition=right;points=[];portConstraint=eastwest;strokeColor=inherit;" vertex="1" parent="jzcio_IL72jMOlBDSi92-1">
          <mxGeometry y="52" width="160" height="8" as="geometry" />
        </mxCell>
        <mxCell id="jzcio_IL72jMOlBDSi92-4" value="+ method(type): type" style="text;strokeColor=none;fillColor=none;align=left;verticalAlign=top;spacingLeft=4;spacingRight=4;overflow=hidden;rotatable=0;points=[[0,0.5],[1,0.5]];portConstraint=eastwest;whiteSpace=wrap;html=1;" vertex="1" parent="jzcio_IL72jMOlBDSi92-1">
          <mxGeometry y="60" width="160" height="26" as="geometry" />
        </mxCell>
        <mxCell id="jzcio_IL72jMOlBDSi92-10" value="" style="shape=partialRectangle;whiteSpace=wrap;html=1;right=0;top=0;bottom=0;fillColor=none;routingCenterX=-0.5;strokeWidth=3;" vertex="1" parent="1">
          <mxGeometry x="345" y="60" width="10" height="60" as="geometry" />
        </mxCell>
        <mxCell id="jzcio_IL72jMOlBDSi92-11" value="" style="shape=partialRectangle;whiteSpace=wrap;html=1;right=0;top=0;bottom=0;fillColor=none;routingCenterX=-0.5;strokeWidth=3;" vertex="1" parent="1">
          <mxGeometry x="110" y="45" width="10" height="110" as="geometry" />
        </mxCell>
        <mxCell id="jzcio_IL72jMOlBDSi92-18" value="ReprodutorMusical" style="swimlane;fontStyle=1;align=center;verticalAlign=top;childLayout=stackLayout;horizontal=1;startSize=26;horizontalStack=0;resizeParent=1;resizeParentMax=0;resizeLast=0;collapsible=1;marginBottom=0;whiteSpace=wrap;html=1;" vertex="1" parent="1">
          <mxGeometry x="40" y="150" width="160" height="100" as="geometry" />
        </mxCell>
        <mxCell id="jzcio_IL72jMOlBDSi92-20" value="" style="line;strokeWidth=1;fillColor=none;align=left;verticalAlign=middle;spacingTop=-1;spacingLeft=3;spacingRight=3;rotatable=0;labelPosition=right;points=[];portConstraint=eastwest;strokeColor=inherit;" vertex="1" parent="jzcio_IL72jMOlBDSi92-18">
          <mxGeometry y="26" width="160" height="8" as="geometry" />
        </mxCell>
        <mxCell id="jzcio_IL72jMOlBDSi92-21" value="+ tocar()&lt;div&gt;+ pausar()&lt;/div&gt;&lt;div&gt;+selecionarMusica(String musica)&lt;/div&gt;" style="text;strokeColor=none;fillColor=none;align=left;verticalAlign=top;spacingLeft=4;spacingRight=4;overflow=hidden;rotatable=0;points=[[0,0.5],[1,0.5]];portConstraint=eastwest;whiteSpace=wrap;html=1;" vertex="1" parent="jzcio_IL72jMOlBDSi92-18">
          <mxGeometry y="34" width="160" height="66" as="geometry" />
        </mxCell>
        <mxCell id="jzcio_IL72jMOlBDSi92-22" value="AparelhoTelefonico" style="swimlane;fontStyle=1;align=center;verticalAlign=top;childLayout=stackLayout;horizontal=1;startSize=26;horizontalStack=0;resizeParent=1;resizeParentMax=0;resizeLast=0;collapsible=1;marginBottom=0;whiteSpace=wrap;html=1;" vertex="1" parent="1">
          <mxGeometry x="270" y="120" width="130" height="94" as="geometry" />
        </mxCell>
        <mxCell id="jzcio_IL72jMOlBDSi92-23" value="" style="line;strokeWidth=1;fillColor=none;align=left;verticalAlign=middle;spacingTop=-1;spacingLeft=3;spacingRight=3;rotatable=0;labelPosition=right;points=[];portConstraint=eastwest;strokeColor=inherit;" vertex="1" parent="jzcio_IL72jMOlBDSi92-22">
          <mxGeometry y="26" width="130" height="8" as="geometry" />
        </mxCell>
        <mxCell id="jzcio_IL72jMOlBDSi92-24" value="+ ligar(String numero)&lt;div&gt;+ atender()&lt;/div&gt;&lt;div&gt;+iniciarCorreioVoz()&lt;/div&gt;" style="text;strokeColor=none;fillColor=none;align=left;verticalAlign=top;spacingLeft=4;spacingRight=4;overflow=hidden;rotatable=0;points=[[0,0.5],[1,0.5]];portConstraint=eastwest;whiteSpace=wrap;html=1;" vertex="1" parent="jzcio_IL72jMOlBDSi92-22">
          <mxGeometry y="34" width="130" height="60" as="geometry" />
        </mxCell>
        <mxCell id="jzcio_IL72jMOlBDSi92-25" value="NavegadorInternet" style="swimlane;fontStyle=1;align=center;verticalAlign=top;childLayout=stackLayout;horizontal=1;startSize=26;horizontalStack=0;resizeParent=1;resizeParentMax=0;resizeLast=0;collapsible=1;marginBottom=0;whiteSpace=wrap;html=1;" vertex="1" parent="1">
          <mxGeometry x="480" y="160" width="140" height="94" as="geometry" />
        </mxCell>
        <mxCell id="jzcio_IL72jMOlBDSi92-26" value="" style="line;strokeWidth=1;fillColor=none;align=left;verticalAlign=middle;spacingTop=-1;spacingLeft=3;spacingRight=3;rotatable=0;labelPosition=right;points=[];portConstraint=eastwest;strokeColor=inherit;" vertex="1" parent="jzcio_IL72jMOlBDSi92-25">
          <mxGeometry y="26" width="140" height="8" as="geometry" />
        </mxCell>
        <mxCell id="jzcio_IL72jMOlBDSi92-27" value="+ abrirPagina(String url)&lt;div&gt;+ adicionarNovaAba()&lt;/div&gt;&lt;div&gt;+atualizarPagina()&lt;/div&gt;" style="text;strokeColor=none;fillColor=none;align=left;verticalAlign=top;spacingLeft=4;spacingRight=4;overflow=hidden;rotatable=0;points=[[0,0.5],[1,0.5]];portConstraint=eastwest;whiteSpace=wrap;html=1;" vertex="1" parent="jzcio_IL72jMOlBDSi92-25">
          <mxGeometry y="34" width="140" height="60" as="geometry" />
        </mxCell>
      </root>
    </mxGraphModel>
  </diagram>
</mxfile>
